<svg width="85" height="32" viewBox="0 0 85 32" fill="none" xmlns="http://www.w3.org/2000/svg">
<path d="M15.9948 13.068C17.5859 13.068 18.9258 14.3246 18.9258 16C18.9258 17.6754 17.6696 18.9319 15.9948 18.9319C14.3199 18.9319 13.0637 17.6754 13.0637 16C13.0637 14.3246 14.4036 13.068 15.9948 13.068Z" fill="white"/>
<path d="M28.3892 5.94764L31.9064 2.42932L29.5616 0L25.9606 3.51832C23.2808 1.34031 19.7635 0 15.9951 0C7.20197 0 0 7.20419 0 16C0 20.2723 1.67488 24.2932 4.68965 27.3089L7.11823 24.8796C4.7734 22.534 3.4335 19.3508 3.4335 16C3.4335 9.04712 9.04433 3.43455 15.9951 3.43455C22.9458 3.43455 28.5566 9.04712 28.5566 16C28.5566 22.9529 22.9458 28.5654 15.9951 28.5654H3.34975L0 32H15.9951C24.7882 32 31.9901 24.7958 31.9901 16C31.9901 12.2304 30.6502 8.71204 28.3892 5.94764Z" fill="white"/>
<path d="M43.8823 25.801C43.4636 26.8901 42.9611 27.644 42.2074 28.0628C41.4538 28.4817 40.7001 28.6492 39.8626 28.6492H38.6902V25.9686H39.5276C39.9464 25.9686 40.2813 25.801 40.5326 25.5497C40.7838 25.2984 41.035 24.8796 41.2025 24.5445L41.8725 22.3665L36.7641 9.04712H40.1976L42.04 14.1571L43.4636 18.5969H43.5473L44.971 14.2408L46.7296 9.04712H50.0794L43.8823 25.801Z" fill="white"/>
<path d="M56.9464 8.87958C57.7001 8.87958 58.4538 8.96335 59.2075 9.13089C59.8775 9.29843 60.5474 9.54973 61.0499 9.88481C61.5523 10.2199 61.9711 10.7225 62.306 11.3089C62.641 11.8953 62.8085 12.6492 62.8085 13.5707V23.0366H59.6262V21.7801H59.5425C59.1238 22.2827 58.6213 22.6178 57.9513 22.8691C57.2814 23.1204 56.6114 23.2042 55.8577 23.2042C54.3504 23.2042 53.1779 22.8691 52.3405 22.1152C51.5031 21.3613 51.0006 20.356 51.0006 19.0157C51.0006 18.4293 51.0844 17.9267 51.3356 17.4241C51.5031 16.9215 51.838 16.5026 52.2568 16.0838C52.6755 15.6649 53.1779 15.4136 53.7642 15.1623C54.3504 14.911 55.0203 14.8272 55.774 14.8272H59.5425V13.822C59.5425 13.5707 59.4587 13.3194 59.375 13.0681C59.2913 12.8168 59.1238 12.6492 58.9563 12.3979C58.7888 12.2304 58.4538 12.0628 58.1188 11.9791C57.7839 11.8953 57.2814 11.8115 56.7789 11.8115C56.0252 11.8115 55.3553 11.8953 54.8528 12.1466C54.3504 12.3141 53.8479 12.6492 53.4292 12.9843L51.7543 10.8063C52.4243 10.1361 53.2617 9.6335 54.0991 9.38219C55.0203 8.96335 56.0252 8.87958 56.9464 8.87958ZM54.0991 18.6806C54.0991 18.8482 54.1829 19.0995 54.2666 19.267C54.3504 19.4346 54.5179 19.6859 54.6853 19.8534C54.8528 20.0209 55.1041 20.1047 55.439 20.2722C55.774 20.356 56.109 20.4398 56.6114 20.4398C56.9464 20.4398 57.2814 20.4398 57.6164 20.356C57.9514 20.2722 58.2863 20.1885 58.5376 20.0209C58.7888 19.8534 59.04 19.6859 59.2075 19.4346C59.375 19.1832 59.5425 18.8482 59.5425 18.5131C59.5425 18.4293 59.5425 18.2618 59.5425 18.0942C59.5425 17.9267 59.5425 17.5916 59.5425 17.1728H56.2765C55.439 17.1728 54.8528 17.3403 54.5178 17.5916C54.2666 17.8429 54.0991 18.2618 54.0991 18.6806Z" fill="white"/>
<path d="M69.8427 22.9529C69.2565 22.9529 68.754 22.8691 68.3353 22.7854C67.8328 22.7016 67.4141 22.4503 67.0792 22.199C66.7442 21.9477 66.4092 21.5288 66.2417 21.0262C66.0742 20.5236 65.9067 19.9372 65.9067 19.267V3.3508H69.089V18.8482C69.089 19.3508 69.1728 19.7696 69.424 19.9372C69.6752 20.1047 70.0102 20.1885 70.4289 20.1885H71.0151V23.0367H69.8427V22.9529Z" fill="white"/>
<path d="M79.138 8.79582C80.2267 8.79582 81.1479 8.96336 81.9853 9.38221C82.8228 9.80106 83.4927 10.3874 83.9952 11.1414C84.3302 11.7278 84.5814 12.3141 84.7489 13.1518C84.9164 13.9058 85.0001 14.8272 85.0001 15.7487C85.0001 16.8377 84.9164 17.7592 84.7489 18.5131C84.5814 19.267 84.3302 19.9372 83.9952 20.5236C83.409 21.445 82.739 22.1152 81.8178 22.534C80.8967 22.9529 79.8917 23.2042 78.8031 23.2042C77.7144 23.2042 76.7932 23.0367 75.9558 22.7016C75.1183 22.3665 74.4484 21.7801 73.9459 21.0262C73.1922 19.8534 72.7735 18.178 72.8572 16.0838C72.8572 15.3299 72.941 14.5759 73.0247 13.9058C73.1085 13.2356 73.276 12.6492 73.6109 12.0628C74.1134 11.0576 74.8671 10.2199 75.7883 9.63352C76.7095 9.1309 77.7981 8.79582 79.138 8.79582ZM78.9705 11.7278C78.3843 11.7278 77.9656 11.8953 77.4632 12.1466C77.0444 12.3979 76.7095 12.8168 76.4582 13.3194C76.2907 13.7382 76.207 14.0733 76.1233 14.5759C76.0395 14.9948 76.0395 15.4974 75.9558 16.0838C75.9558 16.6702 75.9558 17.089 76.0395 17.5916C76.1233 18.0105 76.207 18.4293 76.3745 18.7644C76.542 19.267 76.877 19.6021 77.2957 19.9372C77.7144 20.1885 78.2169 20.356 78.7193 20.356C79.3055 20.356 79.8917 20.1885 80.3105 19.8534C80.8129 19.5183 81.1479 19.0157 81.3154 18.3456C81.3991 18.0943 81.4829 17.7592 81.4829 17.3403C81.4829 16.9215 81.5666 16.4189 81.5666 15.8325C81.5666 14.7435 81.4829 13.9058 81.2316 13.4032C81.0641 12.8168 80.7292 12.4817 80.3105 12.1466C79.9755 11.8115 79.5568 11.7278 78.9705 11.7278Z" fill="white"/>
</svg>
